<svg width="800" height="800" viewBox="0 0 800 800" fill="none" xmlns="http://www.w3.org/2000/svg">
<path d="M339.74 305.477V298.137V278.387V198.976H319.989V370.171L291.859 357.417C289.255 356.241 286.304 356.241 283.7 357.417L255.57 370.171V198.976H235.819V278.387V298.137V305.477V325.227V385.49C235.819 388.847 237.526 391.971 240.342 393.789C243.167 395.612 246.726 395.877 249.774 394.484L287.779 377.255L325.785 394.484C327.087 395.076 328.476 395.366 329.864 395.366C331.736 395.366 333.597 394.835 335.217 393.789C338.033 391.971 339.74 388.847 339.74 385.49V325.227V305.477Z" fill="#FFC107"/>
<path fill-rule="evenodd" clip-rule="evenodd" d="M654.81 298.137H339.74V278.387H613.896C593.324 229.187 593.336 179.293 613.926 129.801H141.677C112.929 184.486 112.756 233.192 141.147 278.387H235.819V298.137H135.784C132.496 298.137 129.42 296.503 127.587 293.774C91.4232 239.972 91.2691 179.871 127.144 115.138C128.89 111.999 132.197 110.051 135.784 110.051H654.81C660.268 110.051 664.685 114.473 664.685 119.926C664.685 125.38 660.268 129.801 654.81 129.801H635.489C612.257 179.966 612.247 228.58 635.486 278.387H654.81C660.268 278.387 664.685 282.809 664.685 288.262C664.685 293.716 660.268 298.137 654.81 298.137ZM498.196 198.976H339.74H319.989H255.57H235.819H203.609C198.15 198.976 193.734 194.555 193.734 189.101C193.734 183.648 198.15 179.225 203.609 179.225H498.196C503.655 179.225 508.071 183.648 508.071 189.101C508.071 194.555 503.655 198.976 498.196 198.976Z" fill="#212529"/>
<path d="M706.125 473.808H686.801C663.565 423.998 663.562 375.379 686.801 325.227H706.125C711.583 325.227 716 320.805 716 315.352C716 309.898 711.583 305.477 706.125 305.477H339.74V325.227H665.237C644.641 374.709 644.636 424.601 665.214 473.808H192.451C164.06 428.612 164.234 379.912 192.991 325.227H235.819V305.477H187.099C183.511 305.477 180.204 307.424 178.458 310.563C142.574 375.292 142.728 435.392 178.901 489.195C180.734 491.923 183.81 493.559 187.099 493.559H706.125C711.583 493.559 716 489.136 716 483.683C716 478.229 711.583 473.808 706.125 473.808Z" fill="#FFC107"/>
<path d="M619.15 521.618H638.474C643.932 521.618 648.349 517.195 648.349 511.742C648.349 506.288 643.932 501.867 638.474 501.867H119.448C115.86 501.867 112.553 503.815 110.807 506.954C74.9139 571.683 75.0679 631.782 111.251 685.585C113.093 688.315 116.16 689.949 119.448 689.949H638.474C643.932 689.949 648.349 685.527 648.349 680.074C648.349 674.62 643.932 670.199 638.474 670.199H619.15C595.914 620.383 595.912 571.77 619.15 521.618ZM124.8 670.199C96.3993 625.003 96.5731 576.297 125.341 521.618H597.587C576.99 571.099 576.988 620.989 597.563 670.199H124.8Z" fill="#212529"/>
</svg>
