<svg width="800" height="800" viewBox="0 0 800 800" fill="none" xmlns="http://www.w3.org/2000/svg">
<path d="M482.325 491.109L465.855 504.148C440.463 523.363 416.444 535.716 400.66 515.128L309.388 397.092C292.917 375.817 310.074 355.916 336.152 336.701L352.622 324.348L290.172 244.056L266.84 261.898C225.664 293.466 218.801 352.485 250.369 392.974L389.68 572.088C421.248 613.263 480.266 620.126 520.756 588.558L544.088 570.715L482.325 491.109Z" fill="#FFC107"/>
<path d="M360.171 311.995L304.584 241.311C295.663 229.644 278.506 227.585 266.84 236.507C255.173 245.428 253.114 262.585 262.036 274.251L316.937 344.936C325.858 356.602 343.014 358.661 354.681 349.74C367.034 340.818 369.092 323.662 360.171 311.995Z" fill="#212529"/>
<path d="M550.951 556.99L495.364 486.305C486.443 474.639 469.286 472.58 457.62 481.501C445.953 490.423 443.894 507.579 452.816 519.246L508.403 589.93C517.324 601.597 534.481 603.656 546.147 594.734C557.814 585.813 559.872 569.343 550.951 556.99Z" fill="#212529"/>
<path d="M680.654 335.328C660.752 386.797 604.479 415.62 551.637 401.895C536.539 397.778 523.501 391.601 511.148 382.68C504.972 377.876 474.776 381.994 456.933 384.739C452.816 385.425 449.385 379.935 452.816 376.504C463.11 363.465 478.894 342.877 476.149 338.073C465.168 311.995 464.482 281.113 476.149 252.291C497.423 201.507 554.382 174.057 607.224 189.155C670.36 206.997 703.987 274.937 680.654 335.328Z" fill="#FFC107"/>
<path d="M535.853 325.034H566.049C568.794 325.034 571.539 325.72 572.911 327.093C574.284 328.465 574.97 329.838 574.97 331.896C574.97 333.955 574.284 335.328 572.911 336.7C571.539 338.073 569.48 338.759 567.421 338.759H524.873C522.128 338.759 519.383 338.073 518.01 336.014C516.638 334.641 515.265 332.583 515.265 330.524C515.265 329.151 515.952 327.093 516.638 325.034C517.324 322.975 518.697 320.916 520.069 319.544C525.559 314.054 529.677 309.936 533.794 305.819C537.912 301.701 540.657 299.642 542.716 298.27C546.147 296.211 548.206 293.466 550.951 291.407C553.01 289.348 554.382 286.603 555.755 284.545C557.127 282.486 557.127 279.741 557.127 277.682C557.127 274.937 556.441 272.878 555.069 270.819C553.696 268.761 552.323 267.388 550.265 266.016C548.206 264.643 546.147 264.643 543.402 264.643C538.598 264.643 534.481 266.702 531.736 271.506C531.049 272.192 530.363 273.564 529.677 276.309C528.991 279.054 527.618 281.113 526.932 282.486C525.559 283.858 524.187 284.545 522.128 284.545C520.069 284.545 518.697 283.858 517.324 282.486C515.952 281.113 515.265 279.741 515.265 276.996C515.265 274.251 515.952 271.506 517.324 268.761C518.697 266.016 520.069 263.27 522.814 260.525C524.873 258.467 528.304 256.408 531.736 255.035C535.167 253.663 539.971 252.977 544.775 252.977C550.951 252.977 555.755 253.663 559.872 255.722C562.617 257.094 564.676 258.467 566.735 260.525C568.794 262.584 570.166 265.329 571.539 268.074C572.911 270.819 573.597 273.564 573.597 276.996C573.597 281.799 572.225 285.917 570.166 290.035C568.107 294.152 565.362 296.897 562.617 298.956C559.872 301.015 555.755 304.446 550.265 309.25C544.088 314.054 540.657 317.485 537.912 320.23C537.912 322.289 537.226 323.661 535.853 325.034Z" fill="#212529"/>
<path d="M621.636 331.897V320.916H592.813C589.381 320.916 586.636 320.23 584.578 318.171C582.519 316.113 581.833 314.054 581.833 311.309C581.833 310.623 581.833 309.936 582.519 309.25C583.205 308.564 583.205 307.878 583.891 307.191C584.578 306.505 585.264 305.819 585.264 304.446C585.95 303.76 586.636 302.387 587.323 301.701L618.204 260.526C620.263 257.781 621.636 255.722 623.008 254.349C624.381 252.977 625.753 252.291 627.812 252.291C633.988 252.291 636.733 255.722 636.733 262.584V307.878H639.478C642.223 307.878 644.969 308.564 646.341 309.25C648.4 309.936 649.086 311.995 649.086 314.74C649.086 316.799 648.4 318.858 647.027 319.544C645.655 320.23 643.596 320.916 640.165 320.916H636.733V331.897C636.733 334.642 636.047 337.387 634.675 338.759C633.302 340.132 631.93 340.818 629.185 340.818C627.126 340.818 625.067 340.132 623.694 338.759C622.322 336.7 621.636 334.642 621.636 331.897ZM596.93 307.878H621.636V274.251L596.93 307.878Z" fill="#212529"/>
<path d="M677.223 393.66C669.674 393.66 662.811 399.837 662.811 408.072C662.811 552.872 544.775 670.909 399.974 670.909C255.173 670.909 137.823 552.872 137.823 408.072C137.823 263.271 255.859 145.234 400.66 145.234C427.424 145.234 452.816 149.352 478.207 156.901L467.914 185.724C465.855 191.214 471.345 196.704 477.521 194.645L535.167 169.94C538.598 168.567 540.657 163.763 538.598 160.332L509.089 104.745C506.344 99.255 498.109 99.9412 496.05 105.431L487.129 130.137C458.992 121.215 430.169 117.098 399.974 117.098C239.389 117.098 109 247.487 109 408.072C109 568.656 239.389 699.046 399.974 699.046C560.559 699.046 690.948 568.656 690.948 408.072C691.634 399.837 685.458 393.66 677.223 393.66Z" fill="#212529"/>
</svg>
