<svg width="800" height="800" viewBox="0 0 800 800" fill="none" xmlns="http://www.w3.org/2000/svg">
<path d="M169.157 524.091H345.425C351.152 524.091 355.794 519.34 355.794 513.475C355.794 507.612 351.152 502.858 345.425 502.858H169.157C163.43 502.858 158.788 507.612 158.788 513.475C158.788 519.34 163.43 524.091 169.157 524.091Z" fill="#212529"/>
<path d="M401.713 576.036H169.157C163.43 576.036 158.788 580.79 158.788 586.652C158.788 592.517 163.43 597.269 169.157 597.269H401.713C407.44 597.269 412.081 592.517 412.081 586.652C412.081 580.79 407.44 576.036 401.713 576.036Z" fill="#FFC107"/>
<path d="M169.157 450.914H623.159C628.887 450.914 633.528 446.159 633.528 440.297C633.528 434.432 628.887 429.681 623.159 429.681H169.157C163.43 429.681 158.788 434.432 158.788 440.297C158.788 446.159 163.43 450.914 169.157 450.914Z" fill="#FFC107"/>
<path d="M570.441 481.161C556.743 481.161 544.026 485.517 533.519 492.932C523.013 485.518 510.295 481.161 496.598 481.161C460.637 481.161 431.381 511.117 431.381 547.936C431.381 584.757 460.637 614.71 496.598 614.71C510.295 614.71 523.013 610.356 533.519 602.939C544.026 610.356 556.743 614.71 570.441 614.71C606.401 614.71 635.657 584.757 635.657 547.936C635.657 511.117 606.401 481.161 570.441 481.161ZM533.519 573.301C528.75 566.047 525.961 557.321 525.961 547.936C525.961 538.553 528.75 529.823 533.519 522.569C538.288 529.823 541.077 538.553 541.077 547.936C541.077 557.321 538.288 566.047 533.519 573.301ZM452.118 547.936C452.118 522.824 472.071 502.394 496.598 502.394C504.404 502.394 511.746 504.47 518.131 508.104C510.027 519.231 505.223 533.019 505.223 547.936C505.223 562.851 510.027 576.64 518.131 587.766C511.746 591.401 504.404 593.477 496.598 593.477C472.071 593.477 452.118 573.047 452.118 547.936ZM570.441 593.477C562.634 593.477 555.292 591.401 548.907 587.766C557.011 576.64 561.815 562.851 561.815 547.936C561.815 533.019 557.011 519.23 548.907 508.104C555.292 504.47 562.634 502.393 570.441 502.393C594.966 502.393 614.92 522.823 614.92 547.936C614.92 573.047 594.966 593.477 570.441 593.477Z" fill="#212529"/>
<path d="M320.497 322.107L600.48 217.08L593.346 197.143L260.216 322.107H320.497Z" fill="#FFC107"/>
<path d="M577.782 153.643L147.317 315.119L149.709 322.107L188.969 322.107L584.914 173.579L577.782 153.643Z" fill="#FFC107"/>
<path fill-rule="evenodd" clip-rule="evenodd" d="M684.63 322.107H660.147L582.208 104.293C580.239 98.7887 574.288 95.9561 568.906 97.977L118.969 266.758C113.592 268.775 110.831 274.872 112.801 280.378L127.732 322.107L149.709 322.107L147.317 315.119L135.838 283.042L566.303 121.567L577.782 153.643L584.914 173.579L593.346 197.143L600.48 217.08L638.061 322.107H320.497H260.216H188.969L149.709 322.107L127.732 322.107H115.369C109.642 322.107 105 326.86 105 332.724V692.058C105 697.924 109.642 702.675 115.369 702.675H684.631C690.358 702.675 695 697.924 695 692.058V332.724C695 326.86 690.358 322.107 684.63 322.107ZM125.737 681.442H674.262L674.262 413.866V361.553V343.34H667.744H645.66H263.894H203.613H157.414H135.331H125.737V681.442Z" fill="#212529"/>
</svg>
