<svg width="800" height="800" viewBox="0 0 800 800" fill="none" xmlns="http://www.w3.org/2000/svg">
<path d="M448 650.32C445.137 650.314 442.37 649.285 440.199 647.419C438.029 645.552 436.597 642.971 436.162 640.141C435.727 637.312 436.319 634.42 437.829 631.988C439.34 629.556 441.671 627.744 444.4 626.88L576.08 585.68C579.078 584.847 582.283 585.212 585.018 586.697C587.753 588.182 589.803 590.672 590.737 593.64C591.672 596.609 591.416 599.824 590.025 602.607C588.633 605.391 586.215 607.525 583.28 608.56L451.92 649.76C450.657 650.176 449.329 650.366 448 650.32Z" fill="#FFC107"/>
<path d="M448 594.32C445.137 594.314 442.37 593.285 440.199 591.419C438.029 589.552 436.597 586.971 436.162 584.141C435.727 581.312 436.319 578.42 437.829 575.988C439.34 573.556 441.671 571.744 444.4 570.88L528.64 544.56C531.674 543.584 534.972 543.853 537.807 545.308C540.643 546.764 542.784 549.286 543.76 552.32C544.736 555.354 544.467 558.651 543.011 561.487C541.556 564.322 539.034 566.464 536 567.44L451.92 593.76C450.657 594.176 449.329 594.366 448 594.32Z" fill="#FFC107"/>
<path d="M186.08 240.64C185.421 240.327 184.721 240.111 184 240H184.48C185.029 240.171 185.564 240.385 186.08 240.64Z" fill="black"/>
<path d="M301.92 283.84C300.275 285.602 299.237 287.845 298.96 290.24C298.97 289.424 299.105 288.615 299.36 287.84C299.768 286.61 300.362 285.45 301.12 284.4L301.92 283.84Z" fill="black"/>
<path fill-rule="evenodd" clip-rule="evenodd" d="M714.96 222.64C715.036 223.09 715.036 223.55 714.96 224C714.744 224.532 714.476 225.041 714.16 225.52V615.68C714.211 618.189 713.463 620.648 712.025 622.704C710.587 624.761 708.533 626.307 706.16 627.12L560 672.88L404.64 721.36L393.28 720L93.5999 626.4C91.1585 625.645 89.0242 624.126 87.5118 622.066C85.9993 620.007 85.1889 617.515 85.1999 614.96V224.96C85.1971 223.875 85.359 222.796 85.6799 221.76C86.1814 219.962 87.1153 218.314 88.3999 216.96C88.5802 216.619 88.859 216.34 89.1999 216.16C89.5391 215.726 89.944 215.349 90.3999 215.04C91.0485 214.589 91.7463 214.213 92.4799 213.92L396.48 87.52H396.96C397.629 87.234 398.326 87.0194 399.04 86.88C400.723 86.4788 402.477 86.4788 404.16 86.88C404.874 87.0194 405.571 87.234 406.24 87.52H406.96L498.72 126.64L707.2 214.64H707.84C708.672 214.984 709.453 215.442 710.16 216L711.92 216.64C712.976 217.571 713.821 218.717 714.4 220C714.62 220.411 714.807 220.839 714.96 221.28C715.006 221.732 715.006 222.188 714.96 222.64ZM109.12 606.16L388.32 693.36V328.4L322.88 308C324.48 304.464 331.312 295.883 345.84 289.84L401.36 307.28L668.16 224L489.6 148.56L401.6 111.52L132.32 223.52L182.96 239.52C173.585 242.519 168.654 253.996 167.36 259.36L109.12 241.12V606.16ZM553.28 649.92L691.04 606.8V241.84L412.32 329.04V694L553.28 649.92Z" fill="#212529"/>
<path fill-rule="evenodd" clip-rule="evenodd" d="M167.36 259.36V421.28C167.362 423.767 168.131 426.192 169.563 428.225C170.995 430.258 173.019 431.8 175.36 432.64L177.2 433.28H178.16H178.96C179.651 433.363 180.349 433.363 181.04 433.28H181.92C182.181 433.356 182.459 433.356 182.72 433.28C183.116 433.356 183.524 433.356 183.92 433.28L185.76 432.72C186.193 432.54 186.597 432.297 186.96 432C187.437 431.753 187.869 431.428 188.24 431.04L188.88 430.48L243.44 382.48L299.44 469.84L300.16 471.04C301.047 472.449 302.215 473.66 303.592 474.596C304.968 475.532 306.524 476.173 308.16 476.48H311.68C312.022 476.562 312.378 476.562 312.72 476.48C312.982 476.551 313.258 476.551 313.52 476.48H314.48C315.132 476.241 315.751 475.919 316.32 475.52C316.96 475.109 317.55 474.626 318.08 474.08L320 472C320.39 471.582 320.739 471.126 321.04 470.64C321.521 470.01 321.899 469.308 322.16 468.56C322.483 467.843 322.725 467.091 322.88 466.32C322.959 465.522 322.959 464.718 322.88 463.92V308C324.48 304.464 331.312 295.883 345.84 289.84L436.24 252.24L438.16 251.2C438.8 250.789 439.39 250.306 439.92 249.76C441.043 248.727 441.942 247.475 442.56 246.08C442.844 245.466 443.059 244.822 443.2 244.16C443.244 243.976 443.244 243.784 443.2 243.6C443.283 242.909 443.283 242.211 443.2 241.52C443.21 240.271 443.021 239.029 442.64 237.84C442.64 237.84 442.64 237.12 442.24 236.8C442.006 236.225 441.739 235.664 441.44 235.12L440.4 233.68C439.928 233.088 439.392 232.552 438.8 232.08H438.24C437.627 231.534 436.923 231.101 436.16 230.8L332.08 183.12H331.52C329.983 182.388 328.302 182.008 326.6 182.008C324.898 182.008 323.217 182.388 321.68 183.12L184.48 240C185.042 240.3 185.578 240.647 186.08 241.04C185.445 240.588 184.743 240.237 184 240C183.695 239.761 183.339 239.597 182.96 239.52C173.585 242.519 168.654 253.996 167.36 259.36ZM306.16 280.56L306.96 280L401.28 240.8L325.92 206.72L193.36 261.84C192.677 262.163 191.949 262.379 191.2 262.48V396.48L237.84 355.2L238.8 354.32L240.4 353.2C241.263 352.652 242.208 352.247 243.2 352H244.88C245.914 351.839 246.966 351.839 248 352L250.24 352.16C250.741 352.248 251.226 352.409 251.68 352.64L252.8 353.2C253.473 353.465 254.095 353.844 254.64 354.32C255.239 354.782 255.801 355.29 256.32 355.84C256.719 356.28 257.068 356.763 257.36 357.28C257.394 357.492 257.394 357.708 257.36 357.92L298.96 423.04V291.6C298.92 291.121 298.92 290.639 298.96 290.16C299.237 287.765 300.275 285.522 301.92 283.76L306.16 280.56Z" fill="#FFC107"/>
<path d="M186.08 240.64C185.421 240.327 184.721 240.111 184 240C184.713 240.144 185.41 240.358 186.08 240.64Z" fill="black"/>
<path d="M301.92 283.84C300.275 285.602 299.237 287.845 298.96 290.24C298.92 290.719 298.92 291.201 298.96 291.68V293.84C298.635 292.198 298.667 290.505 299.053 288.876C299.44 287.248 300.172 285.721 301.2 284.4L301.92 283.84Z" fill="black"/>
</svg>
