<svg width="800" height="800" viewBox="0 0 800 800" fill="none" xmlns="http://www.w3.org/2000/svg">
<path d="M466.667 299.997C450 295.863 422.837 295.711 400 295.863M400 295.863C392.363 295.914 396.98 295.589 386.667 295.863C359.753 296.703 333.387 307.889 333.333 339.58C333.275 373.34 366.667 383.33 400 383.33C433.333 383.33 466.667 391.037 466.667 427.08C466.667 454.167 439.75 466.034 406.203 469.967C379.537 469.967 366.667 470.83 333.333 466.664M400 295.863V250M400 469.98V516.667" stroke="#FFC107" stroke-width="30" stroke-linecap="round" stroke-linejoin="round"/>
<path d="M421.38 689.434C484.667 656.457 666.667 548.703 666.667 400V273.92C666.667 247.269 666.667 233.944 662.307 222.49C658.457 212.371 652.2 203.342 644.077 196.184C634.884 188.081 622.408 183.403 597.456 174.046L597.453 174.045L418.727 107.022L418.711 107.016C411.791 104.422 408.331 103.124 404.767 102.609C401.607 102.152 398.393 102.152 395.233 102.609C391.669 103.124 388.209 104.422 381.289 107.017L381.273 107.022L202.547 174.045L202.544 174.046C177.592 183.403 165.116 188.081 155.922 196.184C147.799 203.342 141.542 212.371 137.692 222.49C133.333 233.944 133.333 247.269 133.333 273.92V400C133.333 548.703 315.332 656.457 378.62 689.434C385.463 693 388.887 694.784 393.633 695.707C397.333 696.427 402.667 696.427 406.367 695.707C411.113 694.784 414.537 693 421.38 689.434Z" stroke="#212529" stroke-width="35" stroke-linecap="round" stroke-linejoin="round"/>
</svg>
