<svg width="250" height="250" viewBox="0 0 250 250" fill="none" xmlns="http://www.w3.org/2000/svg">
<rect width="250" height="250" fill="#FDFCFD"/>
<g clip-path="url(#clip0_115_91)">
<path d="M90.9715 176.708C90.2146 174.906 90.1315 172.895 90.737 171.037C91.3426 169.179 92.597 167.598 94.2736 166.579C94.8319 166.242 94.3215 165.368 93.7604 165.707C91.8374 166.847 90.4021 168.649 89.7263 170.771C89.0506 172.892 89.1812 175.186 90.0936 177.218C90.3501 177.814 91.2262 177.3 90.9715 176.708Z" fill="#3F3D56"/>
<path d="M91.2624 178.067C89.8911 175.653 90.2138 172.765 90.707 170.155C91.2219 167.43 91.8969 164.664 91.3129 161.893C91.048 160.547 90.4211 159.298 89.4987 158.279C89.0546 157.799 88.337 158.515 88.7798 158.993C90.5044 160.854 90.7043 163.553 90.4246 165.951C90.0947 168.779 89.1596 171.534 89.2757 174.408C89.3061 175.865 89.6862 177.295 90.3845 178.577C90.4549 178.688 90.5659 178.767 90.694 178.798C90.8222 178.829 90.9575 178.81 91.0714 178.743C91.1853 178.677 91.2688 178.57 91.3045 178.444C91.3401 178.317 91.325 178.182 91.2624 178.067Z" fill="#3F3D56"/>
<path d="M98.622 185.775H81.3377C80.9334 185.774 80.5457 185.614 80.2598 185.33C79.9739 185.046 79.8131 184.661 79.8126 184.259V179.215C79.8141 177.919 80.333 176.677 81.2556 175.76C82.1781 174.844 83.4289 174.328 84.7335 174.327H87.2686C87.4034 174.327 87.5326 174.273 87.6279 174.179C87.7232 174.084 87.7768 173.956 87.777 173.822V171.465C87.7772 171.242 87.8666 171.028 88.0254 170.87C88.1842 170.712 88.3996 170.623 88.6242 170.623H91.3355C91.5601 170.623 91.7755 170.712 91.9343 170.87C92.0931 171.028 92.1825 171.242 92.1827 171.465V173.822C92.1829 173.956 92.2365 174.084 92.3318 174.179C92.4271 174.273 92.5563 174.327 92.6911 174.327H95.2262C96.5308 174.328 97.7816 174.844 98.7041 175.76C99.6266 176.677 100.146 177.919 100.147 179.215V184.259C100.147 184.661 99.9858 185.046 99.6999 185.33C99.414 185.614 99.0263 185.774 98.622 185.775Z" fill="#CCCCCC"/>
<path d="M90.2454 155.485C90.6093 157.403 90.1588 159.098 89.2391 159.27C88.3194 159.443 87.2789 158.027 86.9149 156.108C86.551 154.189 87.6702 150.999 87.6702 150.999C87.6702 150.999 89.8815 153.566 90.2454 155.485Z" fill="#FFC107"/>
<path d="M97.2248 164.412C96.0724 165.993 94.5236 166.833 93.7655 166.288C93.0074 165.743 93.3271 164.019 94.4795 162.437C95.632 160.856 98.7337 159.47 98.7337 159.47C98.7337 159.47 98.3772 162.83 97.2248 164.412Z" fill="#FFC107"/>
<path d="M59.1143 55.4961C58.3574 53.694 58.2743 51.6823 58.8799 49.8246C59.4854 47.9669 60.7398 46.3856 62.4164 45.3664C62.9747 45.0292 62.4643 44.1553 61.9032 44.4942C59.9802 45.635 58.5449 47.4367 57.8692 49.5582C57.1934 51.6797 57.3241 53.9737 58.2364 56.0059C58.4929 56.6018 59.369 56.0878 59.1143 55.4961Z" fill="#3F3D56"/>
<path d="M59.4051 56.8546C58.0338 54.441 58.3565 51.5526 58.8497 48.9426C59.3646 46.2179 60.0396 43.4514 59.4556 40.6803C59.1907 39.3348 58.5638 38.0859 57.6414 37.0662C57.1973 36.587 56.4797 37.3027 56.9225 37.7805C58.6471 39.6414 58.847 42.341 58.5673 44.7385C58.2374 47.5664 57.3023 50.3219 57.4184 53.1954C57.4488 54.653 57.8289 56.0823 58.5272 57.3645C58.5976 57.4753 58.7086 57.5546 58.8367 57.5857C58.9649 57.6167 59.1002 57.5971 59.2141 57.531C59.328 57.4649 59.4115 57.3574 59.4472 57.2312C59.4828 57.105 59.4677 56.97 59.4051 56.8546Z" fill="#3F3D56"/>
<path d="M66.7647 64.5622H49.4804C49.0761 64.5617 48.6884 64.4019 48.4025 64.1179C48.1166 63.8338 47.9558 63.4487 47.9553 63.047V58.0031C47.9568 56.707 48.4757 55.4643 49.3983 54.5479C50.3208 53.6314 51.5715 53.1158 52.8761 53.1143H55.4113C55.5461 53.1142 55.6753 53.0609 55.7706 52.9663C55.8659 52.8716 55.9195 52.7432 55.9196 52.6093V50.2524C55.9199 50.0292 56.0092 49.8153 56.1681 49.6575C56.3269 49.4997 56.5423 49.4109 56.7669 49.4106H59.4782C59.7028 49.4109 59.9181 49.4997 60.077 49.6575C60.2358 49.8153 60.3252 50.0292 60.3254 50.2524V52.6093C60.3256 52.7432 60.3792 52.8716 60.4745 52.9663C60.5698 53.0609 60.699 53.1142 60.8338 53.1143H63.3689C64.6735 53.1158 65.9243 53.6314 66.8468 54.5479C67.7693 55.4643 68.2882 56.707 68.2897 58.0031V63.047C68.2893 63.4487 68.1285 63.8338 67.8426 64.1179C67.5566 64.4019 67.169 64.5617 66.7647 64.5622Z" fill="#CCCCCC"/>
<path d="M58.3882 34.2726C58.7521 36.1914 58.3016 37.8864 57.3819 38.0586C56.4622 38.2307 55.4217 36.8148 55.0578 34.8961C54.6938 32.9773 55.8131 29.7866 55.8131 29.7866C55.8131 29.7866 58.0243 32.3539 58.3882 34.2726Z" fill="#FFC107"/>
<path d="M65.3675 43.1992C64.2151 44.7808 62.6663 45.621 61.9082 45.0758C61.1501 44.5306 61.4698 42.8065 62.6222 41.2249C63.7747 39.6433 66.8764 38.2573 66.8764 38.2573C66.8764 38.2573 66.5199 41.6176 65.3675 43.1992Z" fill="#FFC107"/>
<path d="M24.7402 116.583H10.845V121.633H24.7402V116.583Z" fill="#FFC107"/>
<path d="M24.7402 133.081H10.845V138.132H24.7402V133.081Z" fill="#FFC107"/>
<path d="M109.467 224.663H5.76142C4.23392 224.662 2.76948 224.058 1.68937 222.985C0.609269 221.912 0.00171241 220.457 0 218.939V30.7239C0.00171241 29.2064 0.609269 27.7514 1.68937 26.6784C2.76948 25.6053 4.23392 25.0017 5.76142 25H109.467C110.994 25.0017 112.459 25.6053 113.539 26.6784C114.619 27.7514 115.227 29.2064 115.228 30.7239V218.939C115.227 220.457 114.619 221.912 113.539 222.985C112.459 224.058 110.994 224.662 109.467 224.663ZM5.76142 25.6734C4.41363 25.6749 3.12148 26.2075 2.16845 27.1543C1.21542 28.1012 0.679339 29.3849 0.677814 30.7239V218.939C0.679339 220.278 1.21542 221.562 2.16845 222.509C3.12148 223.456 4.41363 223.988 5.76142 223.99H109.467C110.815 223.988 112.107 223.456 113.06 222.509C114.013 221.562 114.549 220.278 114.551 218.939V30.7239C114.549 29.3849 114.013 28.1012 113.06 27.1543C112.107 26.2075 110.815 25.6749 109.467 25.6734H5.76142Z" fill="#3F3D56"/>
<path d="M114.889 63.873H0.338867V64.5464H114.889V63.873Z" fill="#3F3D56"/>
<path d="M114.889 104.288H0.338867V104.961H114.889V104.288Z" fill="#3F3D56"/>
<path d="M114.889 144.702H0.338867V145.376H114.889V144.702Z" fill="#3F3D56"/>
<path d="M114.889 185.117H0.338867V185.791H114.889V185.117Z" fill="#3F3D56"/>
<path d="M23.7235 145.539H12.2006C11.7514 145.538 11.3207 145.361 11.003 145.045C10.6853 144.729 10.5066 144.301 10.5061 143.855V111.195C10.5066 110.749 10.6853 110.321 11.003 110.005C11.3207 109.69 11.7514 109.512 12.2006 109.512H23.7235C24.1727 109.512 24.6034 109.69 24.9211 110.005C25.2388 110.321 25.4175 110.749 25.418 111.195V143.855C25.4175 144.301 25.2388 144.729 24.9211 145.045C24.6034 145.361 24.1727 145.538 23.7235 145.539ZM12.2006 110.185C11.9311 110.185 11.6727 110.292 11.482 110.481C11.2914 110.671 11.1842 110.927 11.1839 111.195V143.855C11.1842 144.123 11.2914 144.38 11.482 144.569C11.6727 144.758 11.9311 144.865 12.2006 144.865H23.7235C23.993 144.865 24.2515 144.758 24.4421 144.569C24.6327 144.38 24.7399 144.123 24.7402 143.855V111.195C24.7399 110.927 24.6327 110.671 24.4421 110.481C24.2515 110.292 23.993 110.185 23.7235 110.185H12.2006Z" fill="#3F3D56"/>
<path d="M46.0914 116.583H32.1962V121.633H46.0914V116.583Z" fill="#FFC107"/>
<path d="M46.0914 133.081H32.1962V138.132H46.0914V133.081Z" fill="#FFC107"/>
<path d="M45.0747 145.539H33.5518C33.1026 145.538 32.6719 145.361 32.3542 145.045C32.0365 144.729 31.8578 144.301 31.8573 143.855V111.195C31.8578 110.749 32.0365 110.321 32.3542 110.005C32.6719 109.69 33.1026 109.512 33.5518 109.512H45.0747C45.5239 109.512 45.9546 109.69 46.2723 110.005C46.59 110.321 46.7687 110.749 46.7692 111.195V143.855C46.7687 144.301 46.59 144.729 46.2723 145.045C45.9546 145.361 45.5239 145.538 45.0747 145.539ZM33.5518 110.185C33.2823 110.185 33.0238 110.292 32.8332 110.481C32.6426 110.671 32.5354 110.927 32.5351 111.195V143.855C32.5354 144.123 32.6426 144.38 32.8332 144.569C33.0238 144.758 33.2823 144.865 33.5518 144.865H45.0747C45.3442 144.865 45.6027 144.758 45.7933 144.569C45.9839 144.38 46.0911 144.123 46.0914 143.855V111.195C46.0911 110.927 45.9839 110.671 45.7933 110.481C45.6027 110.292 45.3442 110.185 45.0747 110.185H33.5518Z" fill="#3F3D56"/>
<path d="M79.9821 75.8418H66.0869V80.8923H79.9821V75.8418Z" fill="#FFC107"/>
<path d="M79.9821 92.3398H66.0869V97.3903H79.9821V92.3398Z" fill="#FFC107"/>
<path d="M78.9653 104.798H67.4425C66.9932 104.797 66.5625 104.62 66.2448 104.304C65.9271 103.989 65.7484 103.561 65.7479 103.114V70.4545C65.7484 70.0082 65.9271 69.5803 66.2448 69.2647C66.5625 68.949 66.9932 68.7715 67.4425 68.771H78.9653C79.4146 68.7715 79.8453 68.949 80.163 69.2647C80.4806 69.5803 80.6593 70.0082 80.6598 70.4545V103.114C80.6593 103.561 80.4806 103.989 80.163 104.304C79.8453 104.62 79.4146 104.797 78.9653 104.798ZM67.4425 69.4444C67.1729 69.4447 66.9145 69.5512 66.7239 69.7406C66.5333 69.9299 66.426 70.1867 66.4257 70.4545V103.114C66.426 103.382 66.5333 103.639 66.7239 103.828C66.9145 104.018 67.1729 104.124 67.4425 104.125H78.9653C79.2349 104.124 79.4933 104.018 79.6839 103.828C79.8745 103.639 79.9817 103.382 79.982 103.114V70.4545C79.9817 70.1867 79.8745 69.9299 79.6839 69.7406C79.4933 69.5512 79.2349 69.4447 78.9653 69.4444H67.4425Z" fill="#3F3D56"/>
<path d="M101.333 75.8418H87.438V80.8923H101.333V75.8418Z" fill="#FFC107"/>
<path d="M101.333 92.3398H87.438V97.3903H101.333V92.3398Z" fill="#FFC107"/>
<path d="M100.316 104.798H88.7937C88.3444 104.797 87.9137 104.62 87.596 104.304C87.2783 103.989 87.0996 103.561 87.0991 103.114V70.4545C87.0996 70.0082 87.2783 69.5803 87.596 69.2647C87.9137 68.949 88.3444 68.7715 88.7937 68.771H100.316C100.766 68.7715 101.196 68.949 101.514 69.2647C101.832 69.5803 102.011 70.0082 102.011 70.4545V103.114C102.011 103.561 101.832 103.989 101.514 104.304C101.196 104.62 100.766 104.797 100.316 104.798ZM88.7937 69.4444C88.5241 69.4447 88.2657 69.5512 88.0751 69.7406C87.8844 69.9299 87.7772 70.1867 87.7769 70.4545V103.114C87.7772 103.382 87.8844 103.639 88.0751 103.828C88.2657 104.018 88.5241 104.124 88.7937 104.125H100.316C100.586 104.124 100.844 104.018 101.035 103.828C101.226 103.639 101.333 103.382 101.333 103.114V70.4545C101.333 70.1867 101.226 69.9299 101.035 69.7406C100.844 69.5512 100.586 69.4447 100.316 69.4444H88.7937Z" fill="#3F3D56"/>
<path d="M63.1349 113.566L50.1277 118.422L51.9159 123.15L64.923 118.294L63.1349 113.566Z" fill="#FFC107"/>
<path d="M68.9763 129.01L55.9691 133.866L57.7573 138.594L70.7645 133.738L68.9763 129.01Z" fill="#FFC107"/>
<path d="M61.052 145.163C60.7074 145.162 60.3712 145.057 60.088 144.862C59.8048 144.667 59.5881 144.391 59.4667 144.07L47.9031 113.498C47.7456 113.08 47.7614 112.617 47.947 112.21C48.1326 111.804 48.4729 111.487 48.8932 111.33L59.6797 107.303C59.888 107.225 60.1097 107.189 60.3322 107.196C60.5546 107.204 60.7734 107.254 60.976 107.346C61.1787 107.437 61.3612 107.567 61.5132 107.729C61.6653 107.89 61.7838 108.08 61.862 108.287L73.4256 138.859C73.5831 139.277 73.5673 139.74 73.3817 140.147C73.1961 140.553 72.8558 140.87 72.4355 141.027L61.649 145.054C61.4582 145.126 61.256 145.163 61.052 145.163ZM60.2764 107.868C60.154 107.868 60.0327 107.89 59.9182 107.933L49.1317 111.96C48.8795 112.055 48.6753 112.245 48.5639 112.489C48.4526 112.732 48.4431 113.01 48.5376 113.261L60.1012 143.834C60.1481 143.958 60.2193 144.072 60.3105 144.168C60.4017 144.265 60.5112 144.343 60.6328 144.398C60.7544 144.453 60.8857 144.483 61.0191 144.488C61.1526 144.492 61.2856 144.471 61.4106 144.424L72.197 140.397C72.4492 140.303 72.6534 140.113 72.7648 139.869C72.8762 139.625 72.8856 139.347 72.7911 139.096L61.2275 108.524C61.1547 108.331 61.0246 108.166 60.8548 108.049C60.6849 107.932 60.4831 107.869 60.2764 107.868Z" fill="#3F3D56"/>
<path d="M16.3657 73.4991L3.35852 78.355L5.1467 83.0827L18.1539 78.2268L16.3657 73.4991Z" fill="#FFC107"/>
<path d="M22.2071 88.943L9.19995 93.7988L10.9881 98.5266L23.9953 93.6707L22.2071 88.943Z" fill="#FFC107"/>
<path d="M14.2829 105.095C13.9383 105.095 13.602 104.99 13.3188 104.795C13.0356 104.6 12.8189 104.323 12.6975 104.003L1.13393 73.4304C0.976434 73.0124 0.992227 72.5494 1.17784 72.143C1.36345 71.7366 1.70373 71.4199 2.12405 71.2623L12.9106 67.2356C13.1189 67.1578 13.3406 67.1215 13.563 67.1289C13.7854 67.1362 14.0042 67.187 14.2069 67.2784C14.4095 67.3697 14.5921 67.4998 14.7441 67.6613C14.8961 67.8228 15.0146 68.0124 15.0929 68.2194L26.6565 98.792C26.8139 99.21 26.7982 99.673 26.6125 100.079C26.4269 100.486 26.0867 100.803 25.6663 100.96L14.8798 104.987C14.689 105.058 14.4868 105.095 14.2829 105.095ZM13.5072 67.8008C13.3848 67.801 13.2635 67.823 13.149 67.8659L2.36255 71.8927C2.11033 71.9872 1.90614 72.1772 1.79477 72.4211C1.68339 72.665 1.67392 72.9428 1.76843 73.1936L13.332 103.766C13.379 103.89 13.4501 104.004 13.5413 104.101C13.6325 104.198 13.7421 104.276 13.8636 104.331C13.9852 104.386 14.1165 104.416 14.25 104.421C14.3834 104.425 14.5164 104.403 14.6414 104.356L25.4278 100.33C25.68 100.235 25.8842 100.045 25.9956 99.8013C26.107 99.5574 26.1165 99.2796 26.022 99.0288L14.4584 68.4561C14.3855 68.2639 14.2555 68.0983 14.0856 67.9812C13.9157 67.8642 13.714 67.8012 13.5072 67.8008Z" fill="#3F3D56"/>
<path d="M212.495 109.175C218.297 109.175 223.001 104.502 223.001 98.7375C223.001 92.9729 218.297 88.2998 212.495 88.2998C206.692 88.2998 201.989 92.9729 201.989 98.7375C201.989 104.502 206.692 109.175 212.495 109.175Z" fill="#2F2E41"/>
<path d="M165.82 146.371C166.317 146.562 166.849 146.642 167.38 146.607C167.911 146.571 168.428 146.421 168.894 146.165C169.36 145.91 169.764 145.556 170.078 145.129C170.391 144.701 170.607 144.211 170.709 143.692L199.596 125.585L194.338 119.704L167.584 139.364C166.695 139.251 165.795 139.466 165.055 139.969C164.316 140.471 163.787 141.225 163.57 142.089C163.352 142.953 163.461 143.866 163.876 144.655C164.291 145.444 164.983 146.055 165.82 146.371Z" fill="#FFB8B8"/>
<path d="M193.565 130.399C193.31 130.399 193.058 130.336 192.833 130.215C192.609 130.093 192.418 129.918 192.28 129.704L188.935 124.54C188.724 124.213 188.646 123.82 188.719 123.439C188.791 123.058 189.008 122.719 189.324 122.492L200.518 114.454C201.061 114.064 201.677 113.786 202.331 113.636C202.984 113.487 203.66 113.47 204.321 113.585C204.981 113.7 205.611 113.945 206.174 114.307C206.737 114.668 207.221 115.138 207.598 115.688C207.975 116.239 208.237 116.859 208.369 117.512C208.5 118.165 208.498 118.837 208.364 119.49C208.229 120.142 207.964 120.761 207.585 121.309C207.205 121.858 206.718 122.326 206.154 122.684L194.384 130.161C194.14 130.316 193.856 130.399 193.565 130.399Z" fill="#2F2E41"/>
<path d="M198.564 220.573L194.409 220.572L192.432 204.65L198.565 204.651L198.564 220.573Z" fill="#FFB8B8"/>
<path d="M191.441 219.393H199.454V224.405H186.396C186.396 223.747 186.526 223.095 186.78 222.487C187.033 221.879 187.405 221.326 187.873 220.861C188.342 220.395 188.898 220.026 189.51 219.774C190.122 219.522 190.778 219.393 191.441 219.393Z" fill="#2F2E41"/>
<path d="M217.961 217.486L213.96 218.602L207.725 203.804L213.629 202.157L217.961 217.486Z" fill="#FFB8B8"/>
<path d="M210.782 218.263L218.497 216.112L219.86 220.938L207.288 224.444C207.109 223.81 207.057 223.148 207.136 222.494C207.215 221.841 207.422 221.209 207.747 220.635C208.071 220.061 208.506 219.556 209.027 219.149C209.548 218.742 210.144 218.441 210.782 218.263Z" fill="#2F2E41"/>
<path d="M229.155 193.052L213.025 174.139L222.813 162.34C222.956 162.166 223.137 162.027 223.341 161.932C223.545 161.837 223.768 161.787 223.994 161.788C224.22 161.789 224.442 161.839 224.646 161.936C224.85 162.032 225.029 162.173 225.172 162.346L239.983 180.405L229.155 193.052Z" fill="#FFC107"/>
<path d="M213.676 174.28C213.913 173.854 214.208 173.463 214.552 173.117L223.895 163.707C224.261 163.336 224.754 163.116 225.276 163.091C226.344 163.041 228.094 163.148 228.582 164.311L215.969 174.564L213.676 174.28Z" fill="#F2F2F2"/>
<path d="M229.716 197.053C228.996 197.032 228.297 196.812 227.697 196.418L227.652 196.373L212.879 173.925L215.33 173.69L228.468 163.508C228.634 163.38 228.825 163.287 229.029 163.235C229.233 163.183 229.445 163.174 229.653 163.208C229.86 163.242 230.059 163.318 230.235 163.431C230.412 163.545 230.563 163.693 230.679 163.868L245.04 185.463C245.261 185.796 245.34 186.203 245.262 186.594C245.183 186.985 244.953 187.33 244.621 187.554L230.724 196.864C230.403 196.991 230.061 197.055 229.716 197.053Z" fill="#FFC107"/>
<path d="M224.491 181.698C224.352 181.699 224.215 181.665 224.092 181.6C223.969 181.535 223.864 181.442 223.787 181.327L222.09 178.822C221.964 178.637 221.918 178.41 221.961 178.191C222.004 177.972 222.133 177.779 222.319 177.654L231.026 171.83C231.213 171.706 231.441 171.66 231.662 171.703C231.882 171.746 232.076 171.874 232.202 172.059L233.899 174.563C234.025 174.748 234.071 174.975 234.028 175.195C233.985 175.414 233.856 175.607 233.67 175.732L224.963 181.555C224.823 181.649 224.659 181.698 224.491 181.698Z" fill="#3F3D56"/>
<path d="M191.775 218.164C191.311 218.163 190.865 217.989 190.524 217.677C190.183 217.365 189.972 216.938 189.931 216.479C189.192 208.134 185.483 166.075 185.076 157.581C184.623 148.144 192.529 133.214 192.609 133.065L192.664 132.962L196.571 133.447V133.898L200.29 134.333L207.488 135.025L209.549 160.048L210.46 177.019L219.021 211.68C219.118 212.064 219.059 212.47 218.857 212.811C218.655 213.152 218.326 213.401 217.941 213.503L210.49 215.521C210.103 215.624 209.69 215.573 209.341 215.377C208.992 215.181 208.734 214.857 208.622 214.474L201.608 189.994C201.574 189.875 201.497 189.773 201.393 189.707C201.289 189.64 201.163 189.614 201.041 189.633C200.918 189.652 200.807 189.715 200.728 189.81C200.649 189.904 200.607 190.025 200.611 190.148L201.353 214.018C201.356 214.263 201.31 214.507 201.215 214.733C201.121 214.96 200.981 215.165 200.805 215.335C199.097 216.929 194.584 217.779 192.047 218.145C191.957 218.158 191.866 218.164 191.775 218.164Z" fill="#2F2E41"/>
<path d="M214.162 113.011C212.979 111.787 205.19 113.469 203.46 115.273L191.62 134.501L211.202 138.12L215.528 113.69L214.162 113.011Z" fill="#FFC107"/>
<path d="M209.029 161.862C208.607 161.862 208.189 161.793 207.79 161.657C206.652 161.269 205.258 160.863 203.646 160.452C196.585 158.648 194.092 152.873 196.236 143.287L196.291 143.043C198.304 133.95 202.099 125.339 207.46 117.702L208.29 116.517C209.292 115.088 210.696 113.982 212.325 113.338C213.955 112.694 215.739 112.54 217.456 112.896C220.633 113.547 222.339 114.49 222.526 115.7C222.894 118.074 215.797 146.767 212.729 158.993C212.524 159.813 212.048 160.542 211.377 161.061C210.706 161.581 209.88 161.863 209.029 161.862Z" fill="#2F2E41"/>
<path d="M184.706 158.178C184.521 158.178 184.337 158.15 184.162 158.094L181.873 157.367C181.636 157.291 181.418 157.168 181.233 157.004C181.047 156.84 180.897 156.64 180.794 156.415C180.691 156.191 180.636 155.947 180.632 155.701C180.629 155.454 180.678 155.209 180.775 154.982L192.918 126.664C195.245 121.262 199.313 116.782 204.483 113.928C204.558 113.887 204.641 113.862 204.726 113.854C204.811 113.846 204.897 113.855 204.978 113.882C205.053 113.906 205.122 113.944 205.181 113.996C205.239 114.048 205.286 114.111 205.319 114.182C206.747 117.303 198.974 132.076 192.728 143.945C189.529 150.023 186.767 155.272 186.453 156.768C186.369 157.167 186.149 157.525 185.831 157.782C185.513 158.038 185.116 158.178 184.706 158.178Z" fill="#2F2E41"/>
<path d="M222.275 164.631C222.702 164.315 223.053 163.909 223.305 163.443C223.557 162.977 223.703 162.462 223.732 161.934C223.762 161.406 223.675 160.878 223.477 160.388C223.279 159.897 222.976 159.455 222.587 159.093L222.491 125.159L214.682 126.461L217.236 159.424C216.668 160.113 216.374 160.984 216.409 161.874C216.444 162.763 216.807 163.609 217.428 164.251C218.049 164.893 218.886 165.286 219.779 165.356C220.672 165.426 221.56 165.168 222.275 164.631Z" fill="#FFB8B8"/>
<path d="M215.917 133.578C215.53 133.578 215.158 133.431 214.875 133.169C214.593 132.906 214.422 132.546 214.396 132.163L213.488 118.47C213.402 117.153 213.846 115.855 214.721 114.862C215.597 113.87 216.834 113.262 218.159 113.174C218.84 113.129 219.523 113.223 220.166 113.45C220.809 113.677 221.398 114.032 221.898 114.493C222.398 114.954 222.798 115.511 223.074 116.131C223.35 116.751 223.495 117.421 223.501 118.098L223.624 131.977C223.627 132.378 223.47 132.764 223.188 133.05C222.906 133.336 222.521 133.5 222.117 133.506L215.936 133.578L215.917 133.578Z" fill="#2F2E41"/>
<path d="M210.33 109.706C214.928 109.706 218.654 106.003 218.654 101.436C218.654 96.869 214.928 93.1665 210.33 93.1665C205.733 93.1665 202.007 96.869 202.007 101.436C202.007 106.003 205.733 109.706 210.33 109.706Z" fill="#FFB8B8"/>
<path d="M217.251 107.223C217.872 105.26 218.442 102.946 217.214 101.29C216.328 100.096 214.739 99.6341 213.248 99.568C211.757 99.5019 210.262 99.7529 208.775 99.6354C207.287 99.5179 205.715 98.9347 204.96 97.6563C203.98 95.9987 204.81 93.7155 206.385 92.5992C207.96 91.4828 210.041 91.327 211.958 91.587C214.384 91.8731 216.665 92.8867 218.497 94.4927C220.279 96.1266 221.44 98.4819 221.388 100.891C221.337 103.299 219.977 105.698 217.81 106.779" fill="#2F2E41"/>
<path d="M215.176 89.153C213.183 88.5432 212.264 85.9259 213.155 84.0531C214.046 82.1803 216.324 81.1996 218.393 81.4605C220.461 81.7213 222.284 83.0397 223.541 84.6923C224.798 86.3449 225.556 88.3149 226.189 90.2889C226.821 92.263 227.346 94.2797 228.21 96.1653C229.579 99.0625 231.693 101.55 234.337 103.379C236.981 105.208 240.064 106.313 243.274 106.584C244.673 106.684 246.126 106.612 247.401 106.031C248.676 105.45 249.746 104.278 249.888 102.892C250.614 107.817 247.73 113.052 243.162 115.099C238.595 117.146 232.736 115.829 229.5 112.028C226.338 108.314 225.848 103.07 225.924 98.206C225.945 96.8721 225.994 95.5131 225.623 94.231C225.253 92.9489 224.375 91.7298 223.096 91.3225C222.064 90.994 220.947 91.2308 219.889 91.4638C218.832 91.6967 217.708 91.9209 216.684 91.5698C215.66 91.2186 214.836 90.0616 215.248 89.0664" fill="#2F2E41"/>
<path d="M248.108 225H158.637C158.547 225 158.46 224.965 158.397 224.901C158.333 224.838 158.298 224.753 158.298 224.663C158.298 224.574 158.333 224.488 158.397 224.425C158.46 224.362 158.547 224.327 158.637 224.327H248.108C248.198 224.327 248.284 224.362 248.348 224.425C248.411 224.488 248.447 224.574 248.447 224.663C248.447 224.753 248.411 224.838 248.348 224.901C248.284 224.965 248.198 225 248.108 225Z" fill="#CCCCCC"/>
</g>
<defs>
<clipPath id="clip0_115_91">
<rect width="250" height="200" fill="white" transform="translate(0 25)"/>
</clipPath>
</defs>
</svg>
