<svg width="250" height="250" viewBox="0 0 250 250" fill="none" xmlns="http://www.w3.org/2000/svg">
<rect width="250" height="250" fill="#FDFCFD"/>
<g clip-path="url(#clip0_115_35)">
<path d="M226.375 216.643H173.367V215.018C173.367 213.607 173.928 212.254 174.927 211.256C175.925 210.259 177.28 209.698 178.692 209.698H221.05C222.462 209.698 223.817 210.259 224.816 211.256C225.814 212.254 226.375 213.607 226.375 215.018V216.643Z" fill="#E6E6E6"/>
<path d="M198.631 210.023L200.243 209.374C183.376 167.551 185.001 114.788 199.259 69.5262C200.952 64.2821 201.075 58.6577 199.61 53.345C198.146 48.0324 195.159 43.2633 191.016 39.6244C182.741 32.2469 171.331 30.4496 161.239 34.9336C151.277 39.3603 149.904 47.071 149.904 54.7441H151.642C151.642 46.5534 153.394 40.3197 161.945 36.5199C171.404 32.3177 182.1 34.0032 189.859 40.9199C193.75 44.3376 196.555 48.8169 197.931 53.8068C199.306 58.7966 199.192 64.0793 197.601 69.0049C183.178 114.789 181.649 167.915 198.631 210.023Z" fill="#E6E6E6"/>
<path d="M151.207 80.353C154.567 80.353 157.29 77.6324 157.29 74.2763C157.29 70.9203 154.567 68.1997 151.207 68.1997C147.848 68.1997 145.125 70.9203 145.125 74.2763C145.125 77.6324 147.848 80.353 151.207 80.353Z" fill="#E6E6E6"/>
<path d="M141.839 84.8692V73.3555H143.631V84.8692C144.145 85.077 144.571 85.4569 144.836 85.9438C145.1 86.4307 145.187 86.9943 145.081 87.5381C144.975 88.0819 144.683 88.5719 144.255 88.9242C143.827 89.2765 143.29 89.4692 142.735 89.4692C142.181 89.4692 141.643 89.2765 141.216 88.9242C140.788 88.5719 140.496 88.0819 140.39 87.5381C140.284 86.9943 140.37 86.4307 140.635 85.9438C140.899 85.4569 141.325 85.077 141.839 84.8692Z" fill="#E6E6E6"/>
<path d="M133.176 64.5099C133.179 61.8632 134.233 59.3257 136.106 57.4541C137.98 55.5826 140.52 54.5299 143.169 54.5269H159.68C162.33 54.5269 164.872 55.5786 166.746 57.4508C168.621 59.323 169.674 61.8622 169.674 64.5099C169.674 67.1576 168.621 69.6968 166.746 71.569C164.872 73.4412 162.33 74.493 159.68 74.493H143.169C140.52 74.49 137.98 73.4372 136.106 71.5657C134.233 69.6941 133.179 67.1567 133.176 64.5099Z" fill="#FFC107"/>
<path d="M109.913 126.331C111.57 105.145 120.046 95.0501 114.619 88.7197C109.42 82.656 94.7768 83.9086 85.3725 89.7272C60.0066 105.421 50.7136 167.972 83.3554 198.533C114.374 227.573 173.159 218.272 186.223 194.503C189.271 188.957 191.693 179.234 187.232 173.346C176.155 158.728 135.885 185.206 117.981 168.645C107.37 158.83 109.003 137.959 109.913 126.331Z" fill="#3F3D56"/>
<path d="M129.303 115.806C128.687 116.089 128.205 116.601 127.961 117.233C127.718 117.865 127.73 118.567 127.997 119.19C128.053 119.316 128.119 119.437 128.195 119.552L122.751 126.814L125.468 130.87L131.849 120.117C132.301 119.764 132.624 119.272 132.767 118.718C132.91 118.163 132.865 117.577 132.639 117.05C132.508 116.752 132.319 116.482 132.083 116.257C131.848 116.031 131.57 115.855 131.266 115.736C130.962 115.618 130.637 115.561 130.311 115.568C129.985 115.575 129.663 115.646 129.365 115.777C129.344 115.787 129.323 115.796 129.303 115.806Z" fill="#FFB6B6"/>
<path d="M129.298 128.326C129.655 128.642 128.666 129.032 127.621 128.417C127.322 128.239 127.194 128.165 127.16 128.212C127.076 128.33 127.567 129.196 127.436 131.12C127.355 132.269 125.446 134.428 123.277 136.534C120.346 139.382 116.937 142.129 116.937 142.129L115.741 141.171L103.191 131.12L101.073 128.192C101.267 127.036 101.559 125.898 101.944 124.79C102.475 123.257 103.106 121.761 103.833 120.31C104.223 119.521 104.623 118.769 105.007 118.077L111.73 125.479L117.364 131.678C117.364 131.678 119.005 129.038 120.275 128.32C120.437 128.216 120.622 128.153 120.813 128.135C122.097 128.074 122.175 127.376 120.686 125.855C119.196 124.333 121.076 125.754 122.4 125.344C123.725 124.935 122.4 125.344 122.679 124.32C122.958 123.296 126.673 121.241 126.673 121.241L126.827 121.378L129.634 123.853L130.438 124.562C130.438 124.562 129.56 126.966 129.318 127.473C129.076 127.98 128.945 128.007 129.298 128.326Z" fill="#FFC107"/>
<path d="M203.295 174.977L203.431 171.273L189.194 168.983L188.992 174.45L203.295 174.977Z" fill="#FFB6B6"/>
<path d="M200.71 176.092L200.575 170.161L203.113 170.255L207.211 164.772C207.413 164.501 207.697 164.302 208.021 164.204C208.344 164.106 208.691 164.113 209.01 164.225C209.329 164.338 209.604 164.549 209.794 164.829C209.984 165.108 210.08 165.441 210.068 165.779L209.807 172.824L207.252 173.946L209.745 174.513L209.647 177.169L200.71 176.092Z" fill="#2F2E41"/>
<path d="M123.166 176.419L168.26 177.561C168.26 177.561 187.734 178.685 192.303 175.716L197.121 175.108L197.382 168.038C197.382 168.038 194.436 168.06 192.742 167.272C191.048 166.483 192.225 165.518 190.61 166.467C188.995 167.416 189.166 167.53 187.917 167.094C186.668 166.658 129.407 157.939 129.407 157.939L123.166 176.419Z" fill="#2F2E41"/>
<path d="M182.588 173.351L185.211 170.729L176.333 159.377L172.462 163.248L182.588 173.351Z" fill="#FFB6B6"/>
<path d="M179.935 171.07L183.874 166.63L185.671 168.423L192.407 167.188C192.74 167.127 193.084 167.174 193.388 167.321C193.692 167.469 193.941 167.71 194.099 168.009C194.256 168.309 194.313 168.65 194.263 168.984C194.212 169.318 194.056 169.628 193.817 169.867L188.829 174.855L186.192 173.941L187.634 176.05L185.753 177.931L179.935 171.07Z" fill="#2F2E41"/>
<path d="M105.375 151.748L105.823 162.158C106.351 174.414 119.861 181.831 130.338 175.432C130.531 175.314 130.724 175.192 130.919 175.066C130.919 175.066 134.89 174 134.77 172.313C134.649 170.626 135.619 169.804 136.478 170.265C137.337 170.725 148.579 154.786 148.579 154.786C148.579 154.786 171.936 166.426 177.089 169.165C177.089 169.165 181.934 161.598 181.583 161.678C181.231 161.757 152.687 141.799 152.687 141.799C152.687 141.799 148.036 137.097 142.268 140.202C142.148 140.658 142.25 140.674 142.25 140.674L123.195 156.185L120.502 151.076L105.375 151.748Z" fill="#2F2E41"/>
<path d="M123.341 138.734C123.305 139.215 123.237 139.693 123.136 140.164C122.999 140.847 122.778 141.51 122.478 142.139C122.478 142.139 122.478 142.841 121.133 145.192C119.788 147.542 121.469 146.535 122.478 148.281C123.486 150.024 122.478 149.221 121.358 150.343C121.036 150.669 120.807 151.076 120.695 151.521C120.583 151.965 120.593 152.432 120.723 152.872C120.723 152.872 106.281 152.882 103.592 151.874C100.902 150.867 100.29 145.192 102.701 144.631C105.108 144.07 101.971 143.512 100.556 142.22C99.1407 140.927 101.971 138.811 101.971 138.811C101.971 138.811 100.805 136.799 100.902 130.046C100.916 129.425 100.973 128.805 101.074 128.192C101.268 127.036 101.559 125.898 101.944 124.79C102.475 123.258 103.106 121.761 103.834 120.311C104.224 119.521 104.624 118.769 105.007 118.077C105.067 117.97 105.124 117.866 105.185 117.762C105.914 116.472 106.58 115.418 107.02 114.743C107.36 114.219 107.565 113.923 107.565 113.923L110.012 109.672L118.181 113.497L117.717 119.753L119.126 124.471L119.775 126.644L120.276 128.32L121.049 130.916C121.049 130.916 120.837 130.926 121.089 131.272C122.25 132.814 123.003 134.624 123.278 136.534C123.374 137.263 123.396 138 123.341 138.734Z" fill="#FFC107"/>
<path d="M146.932 139.408L146.779 139.359L127.227 133.069L134.432 109.457C134.575 108.987 134.824 108.555 135.158 108.195C135.493 107.835 135.905 107.555 136.364 107.377C136.823 107.199 137.316 107.127 137.806 107.167C138.297 107.207 138.772 107.358 139.195 107.608L151.69 114.982C152.679 115.565 153.431 116.477 153.816 117.558C154.2 118.639 154.192 119.821 153.793 120.896L146.932 139.408Z" fill="#2F2E41"/>
<path d="M147.012 140.909L127.302 134.569L134.507 110.957C134.65 110.487 134.899 110.055 135.234 109.695C135.568 109.335 135.981 109.055 136.439 108.877C136.898 108.699 137.391 108.627 137.881 108.667C138.372 108.707 138.847 108.858 139.27 109.108L152.361 115.637C154.328 116.797 154.282 119.801 153.369 122.265L147.012 140.909Z" fill="#FFC107"/>
<path d="M145.038 142.618C144.584 142.874 144.082 143.032 143.564 143.084C143.045 143.135 142.522 143.079 142.026 142.917L129.429 138.864C128.462 138.549 127.657 137.868 127.186 136.968C126.715 136.068 126.615 135.02 126.907 134.047L133.223 113.348C133.35 112.934 133.557 112.55 133.834 112.218C134.111 111.885 134.451 111.612 134.835 111.412C135.219 111.213 135.639 111.093 136.071 111.058C136.502 111.023 136.936 111.075 137.347 111.21L150.402 115.492C151.024 115.696 151.599 116.022 152.093 116.452C152.586 116.881 152.989 117.405 153.276 117.993C153.564 118.581 153.73 119.22 153.766 119.873C153.802 120.526 153.707 121.18 153.486 121.795L146.733 140.602C146.43 141.456 145.828 142.172 145.038 142.618Z" fill="#3F3D56"/>
<path d="M117.719 109.744C122.703 109.744 126.742 105.709 126.742 100.73C126.742 95.7524 122.703 91.7168 117.719 91.7168C112.736 91.7168 108.696 95.7524 108.696 100.73C108.696 105.709 112.736 109.744 117.719 109.744Z" fill="#FFB6B6"/>
<path d="M87.2077 109.88C88.0357 111.484 89.3934 112.752 91.0505 113.469C91.7118 113.77 92.4071 113.99 93.1213 114.124C93.3232 113.324 93.6464 112.56 94.0796 111.857C93.9353 112.649 93.9353 113.46 94.0796 114.251C95.1677 114.34 96.2625 114.204 97.2958 113.852C98.3106 113.508 99.231 112.931 99.9841 112.169C100.737 111.407 101.302 110.48 101.634 109.462C102.353 107.073 101.578 104.521 101.517 102.027C101.455 99.5329 102.64 96.5498 105.119 96.2412C107.006 96.0058 106.773 96.1885 108.129 97.5206C106.232 99.6259 110.857 108.951 113.339 108.538C114.742 108.306 115.775 107.193 116.052 107.231C117.473 110.708 113.198 115.638 116.589 117.257L116.337 116.924C114.563 113.996 119.814 109.049 118.039 106.121C117.544 105.301 117.03 104.341 117.336 103.435C117.627 102.573 119.098 102.3 119.408 103.084C118.904 101.287 120.312 99.1769 122.183 98.9935C123.845 98.8297 123.75 99.3029 125.334 99.7347C125.537 99.0527 125.829 98.4005 126.202 97.7948C126.076 98.4858 126.06 99.1924 126.156 99.8883C126.728 99.9564 127.306 99.8342 127.801 99.5405C129.264 98.6641 129.308 96.4018 128.302 95.0249C127.295 93.6478 125.608 92.9678 123.981 92.4533C123.966 89.0149 114.704 87.3688 113.001 90.5656C112.825 87.9772 109.855 86.2336 107.297 86.6733C104.738 87.113 102.719 89.1625 101.489 91.4469C100.258 93.7295 99.6476 96.2853 98.7468 98.7167C97.846 101.148 96.5584 103.572 94.4015 105.015C92.2448 106.456 89.0398 106.586 87.2391 104.719C86.8284 105.516 86.6115 106.399 86.6061 107.296C86.6006 108.193 86.8067 109.078 87.2077 109.88Z" fill="#2F2E41"/>
<path d="M96.466 151.099C96.6527 150.95 96.8552 150.822 97.0699 150.717C100.524 149 111.264 144.543 119.662 144.726C135.82 145.078 156.383 162.892 151.598 174.855C147.956 183.957 129.852 189.136 116.636 184.994C98.1221 179.191 90.8144 155.601 96.466 151.099Z" fill="#3F3D56"/>
<path d="M29.3861 216.677C24.1063 215.682 19.4326 191.92 29.8206 180.218C33.3797 176.208 37.8192 174.463 43.7245 172.839C77.7137 163.491 103.638 172.4 107.122 174.575C110.598 176.745 116.691 209.445 108.899 214.073C104.515 216.677 95.8247 217.98 91.5192 214.941C85.1838 210.471 95.8178 198.874 91.0847 191.069C85.7136 182.211 57.4305 179.228 43.2507 188.03C28.1222 197.422 59.327 222.32 29.3861 216.677Z" fill="#F2F2F2"/>
<path d="M64.6868 176.277H44.5158C39.5364 171.51 35.9762 166.915 38.8266 163.102C38.8266 162.005 39.2625 160.954 40.0384 160.179C40.8144 159.404 41.8668 158.968 42.9642 158.968H66.2384C67.3358 158.968 68.3882 159.404 69.1642 160.179C69.9401 160.954 70.3761 162.005 70.3761 163.102C71.4613 167.447 69.5225 171.839 64.6868 176.277Z" fill="#CCCCCC"/>
<path d="M61.0642 153.765C60.8729 153.774 60.6834 153.724 60.5215 153.621C60.3596 153.519 60.2332 153.369 60.1593 153.193C60.0854 153.016 60.0676 152.821 60.1083 152.634C60.1491 152.447 60.2464 152.277 60.3871 152.147L60.4511 151.893C60.4426 151.873 60.4342 151.852 60.4256 151.832C60.2328 151.377 59.9098 150.989 59.497 150.717C59.0842 150.445 58.6002 150.301 58.1056 150.302C57.6111 150.304 57.1281 150.452 56.7174 150.727C56.3066 151.002 55.9865 151.393 55.797 151.849C55.04 153.67 54.0762 155.495 53.8389 157.421C53.7343 158.272 53.7784 159.135 53.9692 159.971C52.1911 156.097 51.2678 151.885 51.2619 147.623C51.2615 146.553 51.321 145.485 51.4401 144.422C51.5385 143.55 51.675 142.685 51.8496 141.826C52.8026 137.165 54.8488 132.797 57.82 129.08C59.2581 128.296 60.4211 127.09 61.1522 125.626C61.4171 125.099 61.6043 124.538 61.7081 123.958C61.5458 123.979 61.0964 121.511 61.2187 121.359C60.9927 121.017 60.588 120.846 60.3411 120.512C59.1132 118.849 57.4214 119.139 56.5382 121.399C54.6514 122.35 54.6332 123.928 55.7909 125.445C56.5274 126.411 56.6286 127.717 57.2748 128.75C57.2083 128.835 57.1392 128.917 57.0727 129.003C55.8573 130.564 54.7981 132.24 53.9101 134.008C54.126 132.027 53.8683 130.024 53.158 128.163C52.4382 126.428 51.0891 124.967 49.901 123.468C48.4738 121.667 45.5474 122.453 45.296 124.736C45.2935 124.758 45.2912 124.78 45.2889 124.802C45.4653 124.902 45.6381 125.007 45.8071 125.119C46.0194 125.261 46.184 125.463 46.2791 125.7C46.3743 125.937 46.3957 126.197 46.3404 126.446C46.2852 126.695 46.1559 126.921 45.9696 127.096C45.7832 127.27 45.5485 127.384 45.2961 127.423L45.2702 127.427C45.3331 128.062 45.4442 128.692 45.6027 129.311C44.0785 135.199 47.3691 137.344 52.0677 137.44C52.1714 137.493 52.2725 137.546 52.3762 137.597C51.484 140.123 50.9244 142.753 50.7114 145.423C50.5908 146.998 50.5979 148.581 50.7327 150.155L50.7247 150.099C50.3843 148.349 49.4496 146.769 48.0786 145.628C46.0422 143.957 43.1653 143.341 40.9684 141.998C40.735 141.849 40.4635 141.769 40.186 141.768C39.9086 141.767 39.6367 141.846 39.4025 141.994C39.1683 142.143 38.9816 142.355 38.8642 142.607C38.7469 142.858 38.7039 143.137 38.7404 143.412C38.7433 143.432 38.7463 143.451 38.7494 143.471C39.0769 143.604 39.3957 143.757 39.7041 143.93C39.8806 144.03 40.0533 144.135 40.2223 144.247C40.4347 144.389 40.5992 144.591 40.6944 144.828C40.7895 145.065 40.8109 145.325 40.7557 145.574C40.7004 145.823 40.5712 146.049 40.3848 146.224C40.1985 146.398 39.9637 146.512 39.7113 146.551L39.6855 146.555C39.6669 146.558 39.6509 146.56 39.6323 146.563C40.1919 147.898 40.9772 149.126 41.954 150.195C42.907 155.335 47.0003 155.823 51.3789 154.326H51.3816C51.862 156.411 52.5581 158.441 53.4586 160.383H60.8783C60.905 160.301 60.9289 160.215 60.9528 160.133C60.266 160.176 59.5765 160.135 58.8997 160.011C59.4502 159.336 60.0007 158.656 60.5512 157.981C60.5635 157.969 60.575 157.955 60.5858 157.941C60.865 157.596 61.1469 157.253 61.4262 156.908L61.4263 156.908C61.4412 155.849 61.3193 154.793 61.0642 153.765Z" fill="#CCCCCC"/>
<path d="M86.3715 175.197C86.4946 175.555 86.728 175.865 87.0383 176.082C87.3486 176.299 87.7198 176.413 88.0986 176.406L95.4984 176.215C95.8799 176.208 96.2488 176.077 96.55 175.843C96.8511 175.609 97.0682 175.284 97.169 174.916L98.2161 163.73C98.5876 163.899 98.9921 163.982 99.3999 163.973C100.115 163.955 100.794 163.654 101.288 163.136C101.781 162.618 102.048 161.925 102.03 161.211C102.012 160.496 101.71 159.818 101.192 159.325C100.673 158.832 99.9799 158.565 99.2644 158.583C99.1014 158.583 98.9389 158.6 98.7795 158.634C98.6061 158.446 98.3954 158.297 98.1609 158.196C97.9265 158.095 97.6734 158.044 97.418 158.047L86.0355 158.341C85.9411 158.344 85.8471 158.356 85.7547 158.375C85.5051 158.422 85.2683 158.521 85.0604 158.667C84.8524 158.812 84.6781 159.001 84.5491 159.219C84.4202 159.438 84.3395 159.681 84.3127 159.934C84.2859 160.186 84.3134 160.441 84.3935 160.682L86.3715 175.197ZM98.4308 162.971L99.176 160.305C99.2607 159.997 99.2627 159.673 99.1817 159.364C99.2178 159.364 99.2497 159.347 99.2859 159.346C99.7967 159.336 100.291 159.528 100.66 159.881C101.029 160.234 101.243 160.719 101.255 161.229C101.267 161.739 101.076 162.234 100.724 162.603C100.372 162.973 99.887 163.188 99.3763 163.202C99.046 163.212 98.7191 163.132 98.4308 162.971Z" fill="#CCCCCC"/>
<path d="M85.7546 158.375C85.9971 159.76 88.7236 160.734 92.0019 160.565C95.0166 160.426 97.4815 159.369 97.9331 158.115C97.766 158.066 97.5922 158.043 97.418 158.047L86.0354 158.34C85.941 158.344 85.847 158.356 85.7546 158.375Z" fill="white"/>
<path d="M0.396293 217.202L249.604 217.304C249.709 217.304 249.81 217.262 249.884 217.188C249.958 217.114 250 217.013 250 216.908C250 216.803 249.958 216.703 249.884 216.628C249.81 216.554 249.709 216.512 249.604 216.512L0.396293 216.41C0.291189 216.41 0.190391 216.452 0.116071 216.526C0.0417516 216.6 0 216.701 0 216.806C0 216.911 0.0417516 217.012 0.116071 217.086C0.190391 217.16 0.291189 217.202 0.396293 217.202Z" fill="#CACACA"/>
<path d="M140.169 128.726C139.491 128.751 138.85 129.039 138.382 129.528C137.913 130.018 137.654 130.671 137.661 131.349C137.664 131.486 137.679 131.624 137.705 131.759L129.884 136.371L130.831 141.159L140.861 133.683C141.414 133.532 141.901 133.202 142.246 132.745C142.592 132.288 142.776 131.729 142.77 131.156C142.764 130.83 142.693 130.509 142.562 130.21C142.432 129.912 142.243 129.642 142.008 129.416C141.773 129.19 141.495 129.013 141.192 128.894C140.888 128.775 140.563 128.717 140.237 128.724C140.215 128.724 140.192 128.725 140.169 128.726Z" fill="#FFB6B6"/>
<path d="M133.762 139.722C133.553 139.442 133.463 139.325 133.415 139.357C133.293 139.431 133.411 140.42 132.549 142.145C131.337 144.567 118.623 148.276 118.623 148.276L117.057 145.413L110.172 132.832L107.798 122.748C107.715 122.396 107.675 122.036 107.678 121.675C109.794 120.187 112.041 118.895 114.392 117.814C115.331 118.347 116.047 119.199 116.409 120.215L121.149 133.491L123.04 138.792C123.04 138.792 126.376 136.408 127.587 136.846C128.795 137.286 129.138 136.669 128.348 134.693C127.559 132.717 128.744 134.751 130.124 134.88C131.506 135.011 130.124 134.88 130.777 134.042C131.429 133.203 135.651 132.732 135.651 132.732L135.74 132.919L137.376 136.28L137.845 137.246C137.845 137.246 136.11 139.126 135.692 139.5C135.272 139.878 135.142 139.852 135.348 140.282C135.551 140.71 134.489 140.69 133.762 139.722Z" fill="#FFC107"/>
</g>
<defs>
<clipPath id="clip0_115_35">
<rect width="250" height="185" fill="white" transform="translate(0 32.5)"/>
</clipPath>
</defs>
</svg>
