<svg width="250" height="250" viewBox="0 0 250 250" fill="none" xmlns="http://www.w3.org/2000/svg">
<rect width="250" height="250" fill="#FDFCFD"/>
<g clip-path="url(#clip0_115_123)">
<path d="M53.0497 82.9434L62.5047 95.8237C62.5047 95.8237 70.5659 99.2065 79.9874 105.999L77.7322 109.512C77.7322 109.512 62.1814 103.157 58.2018 100.472L50.9348 89.1033L53.0497 82.9434Z" fill="#A0616A"/>
<path d="M85.6412 112.237C86.5436 110.92 85.4722 108.622 83.2483 107.105C81.0244 105.589 78.4901 105.428 77.5878 106.745C76.6855 108.063 77.7568 110.361 79.9807 111.877C82.2046 113.394 84.7389 113.555 85.6412 112.237Z" fill="#A0616A"/>
<path d="M48.4282 71.9476L51.5224 71.0718C51.5224 71.0718 53.3236 71.0752 54.3397 72.8407C55.3558 74.6061 62.5504 90.3475 62.2094 90.9573C61.8683 91.5671 61.3923 91.7018 62.0034 92.0421C62.6144 92.3824 63.1739 92.2099 62.7574 92.7198C62.3409 93.2298 62.9165 94.35 62.9165 94.35L54.9793 100.194L48.4282 71.9476Z" fill="#FFC107"/>
<path d="M36.4235 201.386L40.1984 201.386L41.9942 186.855L36.4227 186.855L36.4235 201.386Z" fill="#A0616A"/>
<path d="M49.3568 201.301C49.4744 201.498 49.5364 202.136 49.5364 202.365C49.5364 203.072 48.9628 203.644 48.2552 203.644H36.5646C36.0819 203.644 35.6906 203.253 35.6906 202.772V202.286C35.6906 202.286 35.1123 200.826 36.3029 199.027C36.3029 199.027 37.7828 200.436 39.994 198.229L40.6461 197.05L45.3662 200.495L47.9825 200.817C48.5549 200.887 49.0624 200.806 49.3568 201.301Z" fill="#2F2E41"/>
<path d="M50.0862 197.715L53.809 198.338L57.9924 184.306L52.4979 183.385L50.0862 197.715Z" fill="#A0616A"/>
<path d="M62.855 199.769C62.9381 199.983 62.8935 200.622 62.8553 200.849C62.7381 201.545 62.0774 202.015 61.3795 201.898L49.8506 199.965C49.3745 199.885 49.0535 199.435 49.1334 198.96L49.2141 198.481C49.2141 198.481 48.8861 196.946 50.3591 195.368C50.3591 195.368 51.5845 197.003 54.1316 195.192L54.9704 194.137L59.0533 198.315L61.5801 199.064C62.1329 199.228 62.6468 199.232 62.855 199.769Z" fill="#2F2E41"/>
<path d="M57.8245 123.156C57.8245 123.156 62.8963 129.081 62.8963 134.513C62.8963 139.945 63.0201 157.008 63.0201 157.008C63.0201 157.008 60.0512 183.645 59.309 185.867C58.5667 188.09 58.1956 191.793 58.1956 191.793L51.0208 190.065C51.0208 190.065 50.0312 165.005 53.0001 159.079L45.8253 138.834L43.3512 196.114H35.0222C35.0222 196.114 30.7335 165.992 32.9602 158.092C32.9602 158.092 28.012 127.97 29.2491 126.242C30.4861 124.514 57.8245 123.156 57.8245 123.156Z" fill="#2F2E41"/>
<path d="M39.3927 64.1475L46.0727 64.6413L48.2993 68.3447C48.2993 68.3447 53.4949 70.5668 54.2371 73.7764C54.9793 76.9861 55.2267 114.514 55.2267 114.514L58.9378 119.946L58.6904 124.637L29.0016 126.118V121.608L26.2802 116.243C26.2802 116.243 29.249 73.2826 29.9912 73.0357C30.7335 72.7888 36.4238 68.8385 36.4238 68.8385L39.3927 64.1475Z" fill="#FFC107"/>
<path d="M42.416 63.2284C47.0617 63.2284 50.8278 59.4701 50.8278 54.8339C50.8278 50.1978 47.0617 46.4395 42.416 46.4395C37.7702 46.4395 34.0042 50.1978 34.0042 54.8339C34.0042 59.4701 37.7702 63.2284 42.416 63.2284Z" fill="#A0616A"/>
<path d="M49.1351 48.0824C48.7071 46.871 47.5196 46.136 46.2327 46.1646C46.1781 46.1658 46.1237 46.1653 46.0697 46.1631C45.4216 46.1367 44.7996 45.9158 44.1641 45.7862C42.9797 45.5447 41.7309 45.6255 40.5877 46.0178C40.2324 46.1397 39.8766 46.293 39.5009 46.2931C39.1252 46.2931 38.7159 46.0875 38.6242 45.7239C38.6025 46.0531 38.5808 46.3823 38.5591 46.7115C38.4368 46.4451 38.3145 46.1786 38.1922 45.9121L37.9474 46.9748L37.1629 46.0867C37.233 46.4781 37.0043 46.8726 36.6947 47.1229C36.3851 47.3732 36.0026 47.5116 35.6361 47.6676C34.0539 48.3406 32.5684 49.5321 32.1125 51.1871C31.8245 52.2327 31.9751 53.3424 32.1278 54.416C32.2626 55.3651 32.4093 56.347 32.9263 57.155C33.2577 57.6729 33.7354 58.1087 33.9372 58.6893C34.1252 59.2305 34.054 59.8501 34.3216 60.3569C34.5903 60.8659 35.1451 61.1539 35.6881 61.3473C36.231 61.5408 36.8082 61.6776 37.2758 62.0141C37.7434 62.3508 38.2861 63.3204 39.3048 63.2682L39.6336 62.6517C39.9718 62.3767 38.7201 62.5948 38.707 62.1596C38.694 61.7244 40.2132 61.4555 39.9979 61.0768C39.6677 60.4961 39.2209 59.9907 38.8488 59.4357C38.4137 58.7867 38.0715 58.0284 38.2216 57.2363C38.28 56.9282 38.4245 56.6371 38.6447 56.4133C39.2792 55.768 39.9868 56.0517 40.6744 56.1439C41.1483 56.2076 41.7144 56.1341 41.9605 55.7249C42.2484 55.2462 41.9275 54.6371 41.9667 54.0802C42.0083 53.49 42.4564 53.0061 42.9439 52.6697C43.4316 52.3332 43.9852 52.0881 44.4239 51.6902C44.8625 51.2922 45.175 50.6705 44.9837 50.1105C47.063 49.2466 47.3813 49.1649 49.5709 49.6918C49.4665 49.1453 49.3204 48.607 49.1351 48.0824Z" fill="#2F2E41"/>
<path d="M13.6232 155.447V129.967C13.6232 129.268 13.9217 128.599 14.4421 128.132C14.9626 127.664 15.6603 127.438 16.357 127.511C22.8097 126.645 28.8871 127.057 34.3949 129.409C35.0188 129.409 35.5264 129.916 35.5264 130.538V156.108C35.5264 156.73 35.0188 157.237 34.3949 157.237C28.3321 155.818 21.9374 156.187 15.4165 157.237C14.4277 157.237 13.6232 156.434 13.6232 155.447Z" fill="#E6E6E6"/>
<path d="M13.6232 157.715V131.966C13.6232 130.604 14.7332 129.496 16.0975 129.496C22.2679 127.885 28.3672 127.883 34.3949 129.496C35.0188 129.496 35.5264 130.003 35.5264 130.626V155.933C35.5264 156.555 35.0203 157.061 34.3977 157.062C28.4542 156.03 22.0875 157.035 15.4165 159.505C14.4277 159.505 13.6232 158.702 13.6232 157.715Z" fill="#F2F2F2"/>
<path d="M27.8716 140.137H22.1018C20.0296 140.137 18.3438 138.455 18.3438 136.387C18.3438 134.319 20.0296 132.637 22.1018 132.637H27.8716C29.9439 132.637 31.6298 134.319 31.6298 136.387C31.6298 138.455 29.9439 140.137 27.8716 140.137Z" fill="#E6E6E6"/>
<path d="M33.1596 89.5625L32.9391 102.856C32.9391 102.856 32.2342 113.217 30.4837 124.876L26.3112 125.142C26.3112 125.142 26.8245 106.937 26.6375 102.147L26.9326 91.5076L33.1596 89.5625Z" fill="#A0616A"/>
<path d="M28.7916 133.117C30.39 133.062 31.6116 130.841 31.5201 128.154C31.4286 125.468 30.0586 123.334 28.4603 123.388C26.8619 123.442 25.6403 125.664 25.7318 128.351C25.8233 131.037 27.1933 133.171 28.7916 133.117Z" fill="#A0616A"/>
<path d="M33.0947 72.6377L29.8806 72.7545C29.8806 72.7545 28.1679 73.3109 27.7454 75.3027C27.323 77.2946 24.3617 97.9082 24.8742 98.3837C25.3867 98.8592 25.8812 98.8412 25.4047 99.3526C24.9283 99.8641 24.3427 99.8717 24.8963 100.229C25.4498 100.586 25.2475 101.829 25.2475 101.829L34.1371 101.2L33.0947 72.6377Z" fill="#FFC107"/>
<path d="M245.157 191.41H159.639C159.143 191.41 158.651 191.334 158.178 191.185L158.128 191.165C131.35 177.884 108.392 170.636 87.9408 169.005L87.863 168.99C85.8399 168.351 84.4807 166.499 84.4807 164.382V50.3371C84.4807 48.7799 85.2028 47.3588 86.4616 46.4385C87.7205 45.5183 89.2957 45.26 90.7841 45.7292L158.39 67.069C158.795 67.1968 159.215 67.2615 159.639 67.2615H245.157C247.828 67.2615 250 69.4296 250 72.0944V186.577C250 189.242 247.828 191.41 245.157 191.41ZM158.415 190.526C158.812 190.649 159.223 190.711 159.639 190.711H245.157C247.441 190.711 249.299 188.856 249.299 186.577V72.0944C249.299 69.815 247.441 67.9606 245.157 67.9606H159.639C159.143 67.9606 158.652 67.885 158.178 67.7357L90.5728 46.3959C89.2998 45.9938 87.9524 46.2153 86.8756 47.0025C85.7988 47.7898 85.1812 49.0052 85.1812 50.3371V164.382C85.1812 166.18 86.3271 167.754 88.0373 168.311C108.562 169.955 131.584 177.222 158.415 190.526Z" fill="#3F3D56"/>
<path d="M161.923 186.231C185.24 177.997 211.253 178.942 238.887 185.41C242.356 186.222 245.683 183.615 245.683 180.059V75.8549C245.683 73.3244 243.954 71.1119 241.491 70.5108C212.338 63.3967 185.109 62.0878 161.112 70.5414C159.354 71.1607 157.403 70.8252 155.919 69.6983C135.698 54.3372 115.003 46.6352 93.6894 48.9221C90.9012 49.2213 88.7982 51.5925 88.7982 54.391V159.731C88.7982 162.552 90.9367 164.91 93.7479 165.202C116.688 167.583 137.768 174.799 157.372 185.85C158.76 186.632 160.42 186.762 161.923 186.231Z" fill="#F2F2F2"/>
<path d="M161.174 180.387C159.586 180.387 158.022 179.952 156.643 179.098C140.179 168.894 122.242 162.933 103.33 161.38C98.8963 161.016 95.4231 157.242 95.4231 152.788V62.81C95.4231 58.1919 99.012 54.4078 103.594 54.1953C117.363 53.5546 134.082 59.6824 156.205 73.4728C158.077 74.639 160.353 74.9853 162.449 74.4242C183.475 68.7919 206.267 68.6273 232.128 73.9212C236.143 74.7432 239.058 78.2994 239.058 82.3773V170.204C239.058 172.854 237.863 175.316 235.78 176.958C233.682 178.612 230.982 179.205 228.373 178.585C203.908 172.774 182.901 173.194 164.149 179.869C163.175 180.216 162.169 180.387 161.174 180.387ZM105.559 54.8493C104.907 54.8493 104.265 54.864 103.626 54.8937C99.4192 55.0888 96.1236 58.566 96.1236 62.81V152.788C96.1236 156.881 99.3143 160.349 103.388 160.683C122.411 162.245 140.453 168.241 157.013 178.504C159.073 179.781 161.588 180.039 163.913 179.211C182.796 172.488 203.935 172.061 228.535 177.905C230.935 178.474 233.417 177.93 235.346 176.409C237.259 174.901 238.357 172.639 238.357 170.204V82.3773C238.357 78.6298 235.678 75.3615 231.988 74.6059C206.236 69.3341 183.549 69.4956 162.631 75.0994C160.347 75.7107 157.87 75.3344 155.834 74.0657C134.868 60.9969 118.813 54.8493 105.559 54.8493Z" fill="white"/>
<path d="M159.583 74.9462L158.883 74.9526L159.857 180.227L160.558 180.221L159.583 74.9462Z" fill="white"/>
<path d="M102.252 67.999L102.032 68.6626L151.081 84.8586L151.301 84.195L102.252 67.999Z" fill="#3F3D56"/>
<path d="M102.252 80.9561L102.032 81.6196L151.081 97.8156L151.301 97.152L102.252 80.9561Z" fill="#3F3D56"/>
<path d="M102.252 93.9126L102.032 94.5762L151.081 110.772L151.301 110.109L102.252 93.9126Z" fill="#3F3D56"/>
<path d="M102.252 106.869L102.032 107.533L151.081 123.729L151.301 123.065L102.252 106.869Z" fill="#3F3D56"/>
<path d="M230.174 84.897H171.388V85.5961H230.174V84.897Z" fill="#3F3D56"/>
<path d="M230.174 97.1343H171.388V97.8334H230.174V97.1343Z" fill="#3F3D56"/>
<path d="M230.174 109.371H171.388V110.07H230.174V109.371Z" fill="#3F3D56"/>
<path d="M230.174 121.608H171.388V122.307H230.174V121.608Z" fill="#3F3D56"/>
<path d="M230.174 133.845H171.388V134.544H230.174V133.845Z" fill="#3F3D56"/>
<path d="M230.174 146.082H171.388V146.781H230.174V146.082Z" fill="#3F3D56"/>
<path d="M19.0051 198.441C18.2814 198.486 17.8815 197.589 18.429 197.066L18.4835 196.85C18.4763 196.833 18.4691 196.816 18.4618 196.798C17.73 195.057 15.2499 195.069 14.5243 196.813C13.8803 198.361 13.0604 199.911 12.8585 201.548C12.768 202.27 12.8088 203.006 12.9694 203.715C11.4604 200.426 10.6663 196.834 10.6663 193.222C10.6663 192.314 10.7161 191.406 10.8179 190.501C10.9016 189.761 11.017 189.025 11.1663 188.295C11.974 184.353 13.7228 180.599 16.2452 177.463C17.4579 176.802 18.4691 175.768 19.0799 174.528C19.2994 174.081 19.4713 173.6 19.5528 173.11C19.4148 173.128 19.0324 171.031 19.1365 170.902C18.9442 170.611 18.6 170.466 18.3899 170.182C17.3453 168.769 15.9061 169.016 15.1548 170.936C13.5498 171.745 13.5342 173.085 14.5191 174.375C15.1456 175.195 15.2317 176.305 15.7815 177.183C15.7249 177.255 15.6661 177.325 15.6095 177.398C14.5724 178.725 13.6753 180.152 12.9191 181.651C13.1328 179.985 12.8173 177.978 12.2794 176.684C11.667 175.21 10.5193 173.969 9.50861 172.694C8.29458 171.163 5.80511 171.831 5.59122 173.772C5.58915 173.791 5.58714 173.809 5.58516 173.828C5.73528 173.913 5.88236 174.003 6.02602 174.097C6.84546 174.638 6.56226 175.906 5.59131 176.055L5.56933 176.059C5.62363 176.598 5.71638 177.133 5.85211 177.66C4.5555 182.664 7.35479 184.486 11.3518 184.568C11.44 184.613 11.526 184.658 11.6143 184.701C11.2093 185.839 10.8858 187.006 10.646 188.189C10.4311 189.235 10.2817 190.291 10.198 191.352C10.094 192.691 10.103 194.037 10.2161 195.373L10.2094 195.326C9.92205 193.854 9.12118 192.479 7.95833 191.526C6.22605 190.106 3.77866 189.583 1.90984 188.442C1.01024 187.892 -0.142532 188.602 0.0144711 189.643L0.0221139 189.693C0.300376 189.806 0.571847 189.937 0.834281 190.083C0.984405 190.168 1.13147 190.258 1.27514 190.353C2.09459 190.893 1.81138 192.161 0.840435 192.311L0.818431 192.314C0.802599 192.316 0.789019 192.319 0.773208 192.321C1.25056 193.452 1.91567 194.502 2.7482 195.407C3.55894 199.775 7.04108 200.19 10.7659 198.918H10.7681C11.1754 200.688 11.7704 202.417 12.535 204.065H18.8469C18.8695 203.995 18.8899 203.923 18.9103 203.853C18.3266 203.889 17.7384 203.855 17.1637 203.749C17.632 203.176 18.1003 202.598 18.5686 202.024C18.58 202.013 18.589 202.002 18.5981 201.99C18.8356 201.697 19.0754 201.406 19.3129 201.112L19.3131 201.112C19.3279 200.211 19.2195 199.313 19.0051 198.441Z" fill="#F2F2F2"/>
<path d="M89.6017 204.084C89.6017 204.315 89.4161 204.5 89.1849 204.5H0.46589C0.234724 204.5 0.0490723 204.315 0.0490723 204.084C0.0490723 203.853 0.234724 203.668 0.46589 203.668H89.1849C89.4161 203.668 89.6017 203.853 89.6017 204.084Z" fill="#CCCCCC"/>
<path d="M232.644 181.972C237.093 181.972 240.7 178.373 240.7 173.933C240.7 169.492 237.093 165.893 232.644 165.893C228.194 165.893 224.587 169.492 224.587 173.933C224.587 178.373 228.194 181.972 232.644 181.972Z" fill="#FFC107"/>
<path d="M236.416 173.63L231.418 170.75C231.184 170.615 230.892 170.783 230.892 171.052V173.583H229.393C229.199 173.583 229.042 173.74 229.042 173.933C229.042 174.126 229.199 174.282 229.393 174.282H230.892V176.813C230.892 177.082 231.184 177.25 231.418 177.116L236.416 174.235C236.65 174.101 236.65 173.764 236.416 173.63Z" fill="white"/>
<path d="M117.924 151.271C118.237 147.688 119.728 144.266 122.114 141.572C124.437 138.948 127.614 137.149 131.039 136.415C132.951 136.006 134.932 135.926 136.868 136.202C137.332 136.268 137.319 137.002 136.851 136.936C133.555 136.466 130.149 137.04 127.188 138.558C124.152 140.115 121.723 142.647 120.222 145.7C119.364 147.446 118.829 149.351 118.659 151.288C118.618 151.757 117.882 151.743 117.924 151.271Z" fill="white"/>
<path d="M136.053 133.256L141.714 136.043C141.92 136.145 141.954 136.479 141.779 136.624L136.419 141.044C136.057 141.344 135.546 140.815 135.912 140.513L141.271 136.093L141.336 136.673L135.675 133.886C135.249 133.676 135.631 133.048 136.053 133.256Z" fill="white"/>
</g>
<defs>
<clipPath id="clip0_115_123">
<rect width="250" height="159" fill="white" transform="translate(0 45.5)"/>
</clipPath>
</defs>
</svg>
