<svg width="693" height="134" viewBox="0 0 693 134" fill="none" xmlns="http://www.w3.org/2000/svg">
<path d="M431.969 1.02502L405.969 9.02502V32.525L431.969 24.525V1.02502Z" fill="#FDB827"/>
<path d="M39.4689 100.025H80.9689L60.9689 132.025L39.4689 100.025Z" fill="#FDB827"/>
<path d="M675.969 39.025L691.969 18.025C684.136 11.525 668.969 0.0250364 646.969 0.0250364C633.636 -0.474964 606.369 6.32504 603.969 37.525C602.257 59.779 625.203 72.5023 646.969 78.8158C654.302 81.5522 666.469 86.525 666.469 95.025C666.469 102.184 660.969 108.025 648.969 108.025C640.636 107.692 622.169 103.425 614.969 89.025L597.469 108.525C603.469 116.692 621.969 133.025 647.969 133.025C672.969 133.025 693.969 118.525 692.969 92.025C692.611 82.5318 689.969 67.025 666.469 58.025C654.636 54.025 630.469 46.525 630.469 36.025C630.469 25.525 648.469 14.525 675.969 39.025Z" fill="#212125"/>
<path d="M545.969 1.02502H571.969V81.525C571.969 110.244 547.688 133.025 518.969 133.025C490.25 133.025 468.469 110.244 468.469 81.525V1.02502H494.469V82.525C494.469 96.3321 505.386 107.525 519.469 107.525C533.552 107.525 545.969 96.3321 545.969 82.525V1.02502Z" fill="#212125"/>
<path d="M405.969 132.025H431.969V29.525L405.969 37.525V132.025Z" fill="#212125"/>
<path d="M345.469 43.525C345.469 53.4661 337.634 61.525 327.969 61.525H316.969V87.525L348.266 132.025H380.266L345.469 82.525C360.656 76.6373 371.969 61.3349 371.969 43.525C371.969 20.6052 353.56 1.02502 331.469 1.02502H277.969V132.025H303.969V25.525H327.969C337.634 25.525 345.469 33.5839 345.469 43.525Z" fill="#212125"/>
<path d="M216.469 1.02502H242.469V81.525C242.469 110.244 218.188 133.025 189.469 133.025C160.75 133.025 138.969 110.244 138.969 81.525V1.02502H164.969V82.525C164.969 96.3321 175.886 107.525 189.969 107.525C204.052 107.525 216.469 96.3321 216.469 82.525V1.02502Z" fill="#212125"/>
<path d="M0 132.025H26.5L60.9689 41.025L94.5993 132.025H122.099L72.4689 1.02502H48.9689L0 132.025Z" fill="#212125"/>
</svg>
